<svg xmlns="http://www.w3.org/2000/svg" viewBox="0 0 16 16">
  <defs>
    <style>.canvas{fill: none; opacity: 0;}.light-blue{fill: #005dba; opacity: 1;}.light-blue-10{fill: #005dba; opacity: 0.1;}.cls-1{opacity:0.75;}</style>
  </defs>
  <title>IconLightInterfacePublic</title>
  <g id="canvas" class="canvas">
    <path class="canvas" d="M16,16H0V0H16Z" />
  </g>
  <g id="level-1">
    <g class="cls-1">
      <path class="light-blue" d="M8.5,7V8h-4V7Z" />
    </g>
    <path class="light-blue-10" d="M4.5,7.5a2,2,0,1,1-2-2A2,2,0,0,1,4.5,7.5Zm10,0a3,3,0,1,1-3-3A3,3,0,0,1,14.5,7.5Z" />
    <path class="light-blue" d="M2.5,5A2.5,2.5,0,1,0,5,7.5,2.5,2.5,0,0,0,2.5,5Zm0,4A1.5,1.5,0,1,1,4,7.5,1.5,1.5,0,0,1,2.5,9Zm9-5A3.5,3.5,0,1,0,15,7.5,3.5,3.5,0,0,0,11.5,4Zm0,6A2.5,2.5,0,1,1,14,7.5,2.5,2.5,0,0,1,11.5,10Z" />
  </g>
</svg>
