<svg xmlns="http://www.w3.org/2000/svg" viewBox="0 0 16 16">
  <defs>
    <style>.canvas{fill: none; opacity: 0;}.light-defaultgrey{fill: #212121; opacity: 1;}</style>
  </defs>
  <title>Namespace</title>
  <g id="canvas">
    <path class="canvas" d="M16,16H0V0H16Z" />
  </g>
  <g id="level-1">
    <path class="light-defaultgrey" d="M4.9,2,5,2v.9l-.092,0a.94.94,0,0,0-.745.332,1.784,1.784,0,0,0-.229,1.025V6.23a1.741,1.741,0,0,1-.888,1.786c.57.2.888.819.888,1.8v1.89a3.406,3.406,0,0,0,.053.646,1.071,1.071,0,0,0,.164.417.7.7,0,0,0,.29.24A1.246,1.246,0,0,0,4.9,13.1l.1,0V14l-.1,0a2.079,2.079,0,0,1-1.478-.538,2.187,2.187,0,0,1-.5-1.577v-2a1.948,1.948,0,0,0-.249-1.079A.914.914,0,0,0,1.963,8.4L1.875,8.39V7.61L1.962,7.6c.645-.07.959-.541.959-1.438V4.132a2.206,2.206,0,0,1,.5-1.586A2.062,2.062,0,0,1,4.9,2ZM14.03,7.6c-.64-.063-.951-.533-.951-1.438V4.132a2.2,2.2,0,0,0-.5-1.591A2.069,2.069,0,0,0,11.1,2L11,2v.9l.093,0A1.357,1.357,0,0,1,11.531,3a.693.693,0,0,1,.29.218A1.174,1.174,0,0,1,12,3.622a2.779,2.779,0,0,1,.064.644V6.23c0,.95.319,1.559.892,1.754a1.8,1.8,0,0,0-.892,1.833v1.89a3.181,3.181,0,0,1-.061.675,1.07,1.07,0,0,1-.178.416.671.671,0,0,1-.29.219,1.291,1.291,0,0,1-.442.081l-.1,0V14l.1,0a2.069,2.069,0,0,0,1.477-.538,2.184,2.184,0,0,0,.5-1.577v-2c0-.929.311-1.415.952-1.485l.087-.009V7.609Z" />
  </g>
</svg>
