<svg xmlns="http://www.w3.org/2000/svg" viewBox="0 0 16 16">
  <defs>
    <style>.canvas{fill: none; opacity: 0;}.light-defaultgrey{fill: #212121; opacity: 1;}</style>
  </defs>
  <title>IconLightParameter</title>
  <g id="canvas" class="canvas">
    <path class="canvas" d="M16,0V16H0V0Z" />
  </g>
  <g id="level-1">
    <path class="light-defaultgrey" d="M4,14H1.5L1,13.5V2.5L1.5,2H4V3H2V13H4Zm11-.5V2.5L14.5,2H12V3h2V13H12v1h2.5Z" />
    <path class="light-defaultgrey" d="M8.75,9.634H8.726a1.361,1.361,0,0,1-1.377,1.05,1.3,1.3,0,0,1-1.055-.491,2.028,2.028,0,0,1-.4-1.321,2.946,2.946,0,0,1,.549-1.826,1.73,1.73,0,0,1,1.448-.728,1.039,1.039,0,0,1,.61.188.843.843,0,0,1,.347.452h.015q.015-.136.073-.562h.811q-.23,2.579-.23,2.627,0,.967.5.967a.88.88,0,0,0,.762-.539,2.853,2.853,0,0,0,.3-1.4,2.78,2.78,0,0,0-.817-2.073A3.1,3.1,0,0,0,8,5.176a3.03,3.03,0,0,0-2.3.971,3.413,3.413,0,0,0-.913,2.432A3.15,3.15,0,0,0,5.66,10.9a3.187,3.187,0,0,0,2.368.884,4.608,4.608,0,0,0,2.007-.4v.752A5.517,5.517,0,0,1,7.9,12.5a3.967,3.967,0,0,1-2.9-1.074,3.761,3.761,0,0,1-1.1-2.813A4.046,4.046,0,0,1,5.069,5.649,4,4,0,0,1,8.038,4.473a4.067,4.067,0,0,1,2.805.986,3.281,3.281,0,0,1,1.111,2.573,2.94,2.94,0,0,1-.6,1.907,1.831,1.831,0,0,1-1.473.745Q8.756,10.684,8.75,9.634ZM7.974,7.012a.991.991,0,0,0-.867.527,2.444,2.444,0,0,0-.329,1.314A1.39,1.39,0,0,0,7,9.685a.7.7,0,0,0,.593.3.948.948,0,0,0,.85-.554,2.983,2.983,0,0,0,.312-1.467Q8.755,7.012,7.974,7.012Z" />
  </g>
</svg>
