<svg xmlns="http://www.w3.org/2000/svg" viewBox="0 0 16 16">
  <defs>
    <style>.canvas{fill: none; opacity: 0;}.light-defaultgrey-10{fill: #212121; opacity: 0.1;}.light-defaultgrey{fill: #212121; opacity: 1;}.cls-1{opacity:0.75;}</style>
  </defs>
  <title>IconLightPropertyPublic</title>
  <g id="canvas" class="canvas">
    <path class="canvas" d="M16,16H0V0H16Z" />
  </g>
  <g id="level-1">
    <g class="cls-1">
      <path class="light-defaultgrey-10" d="M10.242,7.167c-1.722,1.75-5.418,5.45-7.191,7.1-.861.75-2.076-.651-1.418-1.4,1.671-1.75,5.418-5.449,7.14-7.1a1.078,1.078,0,0,1,.659-.25A1.026,1.026,0,0,1,10.242,7.167Z" />
      <path class="light-defaultgrey" d="M10.828,5.938a1.508,1.508,0,0,0-1.4-.921,1.628,1.628,0,0,0-1.005.388c-1.714,1.643-5.473,5.355-7.17,7.131a1.444,1.444,0,0,0,.187,1.973,1.5,1.5,0,0,0,1.056.47,1.352,1.352,0,0,0,.892-.346C5.254,12.9,9.051,9.09,10.61,7.506A1.45,1.45,0,0,0,10.828,5.938Zm-.942.878C8.344,8.384,4.561,12.178,2.723,13.89a.4.4,0,0,1-.571-.087C2,13.653,1.86,13.365,2,13.212c1.673-1.753,5.417-5.448,7.076-7.044a.575.575,0,0,1,.361-.151.513.513,0,0,1,.48.322A.465.465,0,0,1,9.886,6.816Z" />
    </g>
    <path class="light-defaultgrey" d="M14.974,5a4,4,0,0,1-8,0,3.961,3.961,0,0,1,4-4,4.19,4.19,0,0,1,1.441.241L9.534,4.2l2.24,2.241,2.96-2.882A4.19,4.19,0,0,1,14.974,5Z" />
  </g>
</svg>
