<svg xmlns="http://www.w3.org/2000/svg" viewBox="0 0 16 16">
  <defs>
    <style>.canvas{fill: none; opacity: 0;}.light-green-10{fill: #1f801f; opacity: 0.1;}.light-green{fill: #1f801f; opacity: 1;}</style>
  </defs>
  <title>IconLightStatusOKOutline</title>
  <g id="canvas" class="canvas">
    <path class="canvas" d="M16,16H0V0H16Z" />
  </g>
  <g id="level-1">
    <path class="light-green-10" d="M13.5,7.5a6,6,0,1,1-6-6A6,6,0,0,1,13.5,7.5Z" />
    <path class="light-green" d="M7.5,1A6.5,6.5,0,1,0,14,7.5,6.508,6.508,0,0,0,7.5,1Zm0,12A5.5,5.5,0,1,1,13,7.5,5.506,5.506,0,0,1,7.5,13Z" />
    <path class="light-green" d="M11.354,5.854l-4.5,4.5H6.146l-2.5-2.5.708-.708L6.5,9.293l4.146-4.147Z" />
  </g>
</svg>
