<svg xmlns="http://www.w3.org/2000/svg" viewBox="0 0 16 16">
  <defs>
    <style>.canvas{fill: none; opacity: 0;}.light-defaultgrey{fill: #212121; opacity: 1;}</style>
  </defs>
  <title>IconLightString</title>
  <g id="canvas">
    <path class="canvas" d="M16,16H0V0H16Z" />
  </g>
  <g id="level-1">
    <path class="light-defaultgrey" d="M8,6a1.987,1.987,0,0,0-1,.277V4H6v6H7V9.723A2,2,0,1,0,8,6ZM8,9A1,1,0,1,1,9,8,1,1,0,0,1,8,9ZM4,6v.277A2,2,0,1,0,4,9.723V10H5V6ZM3,9A1,1,0,1,1,4,8,1,1,0,0,1,3,9Zm10.994.414a2,2,0,1,1,0-2.828l-.707.707a1,1,0,1,0,0,1.414Z" />
  </g>
</svg>
