<?xml version="1.0" encoding="UTF-8" standalone="no"?>
<svg
   xmlns:dc="http://purl.org/dc/elements/1.1/"
   xmlns:cc="http://creativecommons.org/ns#"
   xmlns:rdf="http://www.w3.org/1999/02/22-rdf-syntax-ns#"
   xmlns:svg="http://www.w3.org/2000/svg"
   xmlns="http://www.w3.org/2000/svg"
   xmlns:sodipodi="http://sodipodi.sourceforge.net/DTD/sodipodi-0.dtd"
   xmlns:inkscape="http://www.inkscape.org/namespaces/inkscape"
   version="1.0"
   width="1000.0001"
   height="1069.6721"
   viewBox="0 0 999.99994 1069.6721"
   preserveAspectRatio="xMidYMid meet"
   id="svg261"
   sodipodi:docname="logo-with-text-below-dark.svg"
   inkscape:version="0.92.4 (5da689c313, 2019-01-14)"
   inkscape:export-filename="/home/tsviatko/work/codemerx.com/images/codemerx-logo-with-text.png"
   inkscape:export-xdpi="6.0419278"
   inkscape:export-ydpi="6.0419278">
  <defs
     id="defs265" />
  <sodipodi:namedview
     pagecolor="#ffffff"
     bordercolor="#666666"
     borderopacity="1"
     objecttolerance="10"
     gridtolerance="10"
     guidetolerance="10"
     inkscape:pageopacity="0"
     inkscape:pageshadow="2"
     inkscape:window-width="2560"
     inkscape:window-height="1377"
     id="namedview263"
     showgrid="false"
     inkscape:zoom="0.5"
     inkscape:cx="659.36666"
     inkscape:cy="586.73628"
     inkscape:window-x="1912"
     inkscape:window-y="-8"
     inkscape:window-maximized="1"
     inkscape:current-layer="g4807"
     inkscape:snap-object-midpoints="true"
     units="px"
     fit-margin-top="0"
     fit-margin-left="0"
     fit-margin-right="0"
     fit-margin-bottom="0"
     inkscape:pagecheckerboard="true" />
  <metadata
     id="metadata255">
Created by potrace 1.15, written by Peter Selinger 2001-2017
<rdf:RDF>
  <cc:Work
     rdf:about="">
    <dc:format>image/svg+xml</dc:format>
    <dc:type
       rdf:resource="http://purl.org/dc/dcmitype/StillImage" />
    <dc:title></dc:title>
  </cc:Work>
</rdf:RDF>
</metadata>
  <g
     inkscape:groupmode="layer"
     id="layer1"
     inkscape:label="Fill"
     style="display:inline"
     transform="translate(62.802823,132.9344)">
    <g
       id="g4807"
       style="fill:#6692d3;fill-opacity:1;stroke:#6692d3;stroke-width:0.99975002;stroke-miterlimit:4;stroke-dasharray:none;stroke-opacity:1">
      <g
         id="g4847"
         transform="matrix(2.5000147,0,0,2.5000147,-108.65992,-1429.3344)">
        <path
           style="fill:#6692d3;fill-opacity:1;stroke:#6692d3;stroke-width:0.99974996;stroke-miterlimit:4;stroke-dasharray:none;stroke-opacity:1"
           d="m 161.25196,815.96154 c -23.32343,-0.8781 -39.09608,-3.09803 -62.026954,-8.72993 -11.44035,-2.8098 -14.7789,-3.77985 -28.617,-8.31487 l -11.745675,-3.84938 0.395775,-7.32015 c 0.766575,-14.17905 1.711125,-24.32265 3.26925,-35.10825 6.054525,-41.90981 20.3415,-82.61458 41.741854,-118.92623 11.47207,-19.46564 25.8441,-38.92129 40.8783,-55.33776 1.62952,-1.77934 3.0339,-3.16404 3.12082,-3.07711 0.0869,0.0869 -2.14627,3.70128 -4.96267,8.0319 -16.87658,25.95035 -27.6405,47.8091 -36.68333,74.49451 -8.675924,25.60261 -14.527199,56.37931 -14.629874,76.95097 -0.03675,7.40208 0.375375,9.71017 2.0046,11.22082 3.666825,3.40013 26.630404,13.22963 44.098204,18.87608 14.40772,4.65735 41.4813,10.2897 55.2453,11.49322 6.6141,0.57833 44.66145,0.57833 51.27555,0 13.8963,-1.21507 40.47652,-6.68737 54.54067,-11.22877 4.35915,-1.40753 4.3314,-1.41773 4.95818,1.8159 0.42217,2.17807 2.12227,18.29115 1.9482,18.46522 -0.25905,0.25905 -13.9785,6.6246 -18.44175,8.5566 -23.82975,10.3152 -52.7595,17.6778 -82.53713,21.00555 -11.28307,1.2609 -27.0414,1.61385 -43.83232,0.98168 z"
           id="path4798"
           inkscape:connector-curvature="0" />
        <path
           style="fill:#6692d3;fill-opacity:1;stroke:#6692d3;stroke-width:0.99974996;stroke-miterlimit:4;stroke-dasharray:none;stroke-opacity:1"
           d="m 120.19831,744.49531 c -0.90968,-0.3312 -4.63133,-1.8687 -8.27025,-3.41657 l -6.6162,-2.81431 -0.10163,-5.07761 c -0.48795,-24.38169 9.89115,-66.60725 24.25988,-98.69689 8.56612,-19.13071 21.47017,-40.87148 34.8507,-58.71661 8.66272,-11.55325 14.80575,-18.46241 29.28975,-32.94289 8.54647,-8.54437 23.69055,-22.60699 25.5579,-23.7327 0.54022,-0.32569 3.21052,1.28962 13.33995,8.06966 10.76782,7.20732 16.18252,11.14487 24.31455,17.68132 36.33315,29.20439 66.11857,65.95255 86.96565,107.29515 6.744,13.37439 10.61557,22.52041 17.17335,40.56986 3.5202,9.68881 4.65728,13.05097 4.47533,13.23292 -0.069,0.0686 -2.34736,-4.07184 -5.06378,-9.20112 -13.43498,-25.36893 -22.21223,-39.15038 -35.75198,-56.13561 -13.26315,-16.63816 -30.39352,-33.83629 -47.34997,-47.53722 -10.10205,-8.16251 -19.69028,-14.85381 -25.57613,-17.84879 -5.42047,-2.75809 -7.15642,-2.36545 -16.18222,3.66008 -16.95053,11.31595 -40.62968,33.05535 -55.36275,50.82753 -18.61133,22.45044 -33.37868,47.80956 -43.4298,74.57937 -3.94485,10.5066 -8.8323,26.13081 -11.12438,35.56209 -0.55275,2.27433 -1.14262,4.39566 -1.31092,4.71404 -0.39465,0.74677 -1.91235,0.72015 -4.08705,-0.072 z"
           id="path4800"
           inkscape:connector-curvature="0" />
        <path
           style="fill:#6692d3;fill-opacity:1;stroke:#6692d3;stroke-width:0.99974996;stroke-miterlimit:4;stroke-dasharray:none;stroke-opacity:1"
           d="m 210.34411,837.21624 c -16.96358,-0.4212 -40.95645,-3.20265 -58.16003,-6.74243 -5.9757,-1.22955 -4.974,-1.33042 11.0196,-1.10992 20.14643,0.2778 32.74695,-0.3294 49.1253,-2.36723 25.78305,-3.2079 50.3718,-9.32947 72.86753,-18.14092 7.58497,-2.97098 13.5327,-5.65403 21.8262,-9.84585 11.24347,-5.68298 12.1173,-6.8385 11.71432,-15.48998 -0.24735,-5.31135 -1.48747,-16.49212 -2.69677,-24.31455 -4.317,-27.92471 -12.33555,-52.95338 -25.224,-78.73282 -11.08455,-22.17117 -26.67833,-44.74624 -43.6449,-63.18474 -2.1765,-2.3653 -7.09635,-7.3342 -10.93298,-11.04202 l -6.97567,-6.74148 8.43945,-6.24282 c 4.64175,-3.43355 8.53822,-6.24282 8.6589,-6.24282 0.4344,0 7.56127,4.55055 11.12355,7.10245 43.0377,30.83108 76.88782,73.68791 99.1173,125.49023 4.5405,10.58092 10.0065,25.87224 13.1823,36.87805 2.78468,9.65047 7.47803,31.28812 7.84035,36.14655 l 0.19875,2.6652 -1.43295,1.22662 c -1.58242,1.35443 -12.48998,6.96885 -21.48218,11.0574 -32.35605,14.7117 -66.30967,24.11415 -100.5663,27.84885 -8.43,0.91905 -13.64655,1.29015 -23.48752,1.67085 -7.87418,0.30458 -11.8557,0.32625 -20.51025,0.11138 z"
           id="path4802"
           inkscape:connector-curvature="0" />
      </g>
      <g
         aria-label="CodeMerx"
         style="font-style:normal;font-variant:normal;font-weight:normal;font-stretch:normal;font-size:157.71633911px;line-height:1.25;font-family:FreeSerif;-inkscape-font-specification:FreeSerif;letter-spacing:0px;word-spacing:0px;opacity:1;fill:#828282;fill-opacity:1;stroke:none;stroke-width:0.39419231"
         id="text4996"
         transform="matrix(1.4419995,0,0,1.4419995,-234.52616,-379.3215)">
        <path
           d="m 201.83738,815.96018 v 14.63941 q -7.01041,-6.52931 -14.98305,-9.7596 -7.9039,-3.23029 -16.83874,-3.23029 -17.59478,0 -26.942,10.79054 -9.34723,10.72182 -9.34723,31.06577 0,20.27523 9.34723,31.06578 9.34722,10.72181 26.942,10.72181 8.93484,0 16.83874,-3.23029 7.97264,-3.23029 14.98305,-9.7596 v 14.50194 q -7.28533,4.94853 -15.46415,7.4228 -8.11009,2.47426 -17.1824,2.47426 -23.29933,0 -36.7016,-14.22702 -13.40227,-14.29575 -13.40227,-38.96968 0,-24.74265 13.40227,-38.96967 13.40227,-14.29576 36.7016,-14.29576 9.20977,0 17.31986,2.47427 8.17882,2.40553 15.32669,7.28533 z"
           style="font-style:normal;font-variant:normal;font-weight:normal;font-stretch:normal;font-size:140.75819397px;font-family:sans-serif;-inkscape-font-specification:sans-serif;letter-spacing:0px;fill:#828282;fill-opacity:1;stroke-width:0.39419231"
           id="path164"
           inkscape:connector-curvature="0" />
        <path
           d="m 252.69728,842.55854 q -10.17198,0 -16.08272,7.97263 -5.91075,7.9039 -5.91075,21.71855 0,13.81464 5.84202,21.78728 5.91074,7.9039 16.15145,7.9039 10.10325,0 16.01399,-7.97263 5.91075,-7.97264 5.91075,-21.71855 0,-13.67719 -5.91075,-21.64982 -5.91074,-8.04136 -16.01399,-8.04136 z m 0,-10.72182 q 16.4951,0 25.91105,10.72182 9.41596,10.72181 9.41596,29.69118 0,18.90063 -9.41596,29.69118 -9.41595,10.72181 -25.91105,10.72181 -16.56383,0 -25.97978,-10.72181 -9.34723,-10.79055 -9.34723,-29.69118 0,-18.96937 9.34723,-29.69118 9.41595,-10.72182 25.97978,-10.72182 z"
           style="font-style:normal;font-variant:normal;font-weight:normal;font-stretch:normal;font-size:140.75819397px;font-family:sans-serif;-inkscape-font-specification:sans-serif;letter-spacing:0px;fill:#828282;fill-opacity:1;stroke-width:0.39419231"
           id="path166"
           inkscape:connector-curvature="0" />
        <path
           d="m 359.57179,845.37645 v -41.65013 h 12.64624 v 106.94324 h -12.64624 v -11.54657 q -3.98632,6.87295 -10.10325,10.2407 -6.0482,3.29902 -14.57067,3.29902 -13.95211,0 -22.74949,-11.13419 -8.72866,-11.13419 -8.72866,-29.2788 0,-18.14461 8.72866,-29.27881 8.79738,-11.13419 22.74949,-11.13419 8.52247,0 14.57067,3.36775 6.11693,3.29902 10.10325,10.17198 z m -43.09345,26.87327 q 0,13.9521 5.70456,21.92473 5.77328,7.90391 15.8078,7.90391 10.03452,0 15.80781,-7.90391 5.77328,-7.97263 5.77328,-21.92473 0,-13.95211 -5.77328,-21.85601 -5.77329,-7.97263 -15.80781,-7.97263 -10.03452,0 -15.8078,7.97263 -5.70456,7.9039 -5.70456,21.85601 z"
           style="font-style:normal;font-variant:normal;font-weight:normal;font-stretch:normal;font-size:140.75819397px;font-family:sans-serif;-inkscape-font-specification:sans-serif;letter-spacing:0px;fill:#828282;fill-opacity:1;stroke-width:0.39419231"
           id="path168"
           inkscape:connector-curvature="0" />
        <path
           d="m 464.10948,869.01943 v 6.18566 h -58.14523 q 0.82475,13.05862 7.83517,19.93158 7.07915,6.80423 19.65666,6.80423 7.28534,0 14.08957,-1.78697 6.87296,-1.78697 13.60846,-5.36091 v 11.95895 q -6.80423,2.88664 -13.95211,4.39869 -7.14788,1.51205 -14.50194,1.51205 -18.41953,0 -29.21008,-10.72181 -10.72181,-10.72182 -10.72181,-29.00389 0,-18.90063 10.17198,-29.9661 10.2407,-11.13419 27.56056,-11.13419 15.53289,0 24.53646,10.03452 9.07231,9.96579 9.07231,27.14819 z m -12.64625,-3.7114 q -0.13745,-10.37817 -5.84201,-16.56383 -5.63583,-6.18566 -14.98305,-6.18566 -10.58436,0 -16.97621,5.97947 -6.32312,5.97947 -7.28533,16.83875 z"
           style="font-style:normal;font-variant:normal;font-weight:normal;font-stretch:normal;font-size:140.75819397px;font-family:sans-serif;-inkscape-font-specification:sans-serif;letter-spacing:0px;fill:#828282;fill-opacity:1;stroke-width:0.39419231"
           id="path170"
           inkscape:connector-curvature="0" />
        <path
           d="m 485.41568,808.05628 h 20.6876 l 26.18597,69.82926 26.32344,-69.82926 h 20.6876 v 102.61328 h -13.53973 v -90.10449 l -26.46089,70.37909 h -13.9521 l -26.4609,-70.37909 v 90.10449 h -13.47099 z"
           style="font-style:normal;font-variant:normal;font-weight:normal;font-stretch:normal;font-size:140.75819397px;font-family:sans-serif;-inkscape-font-specification:sans-serif;letter-spacing:0px;fill:#828282;fill-opacity:1;stroke-width:0.39419231"
           id="path172"
           inkscape:connector-curvature="0" />
        <path
           d="m 672.2227,869.01943 v 6.18566 h -58.14523 q 0.82475,13.05862 7.83517,19.93158 7.07915,6.80423 19.65666,6.80423 7.28534,0 14.08957,-1.78697 6.87296,-1.78697 13.60846,-5.36091 v 11.95895 q -6.80423,2.88664 -13.95211,4.39869 -7.14788,1.51205 -14.50194,1.51205 -18.41953,0 -29.21008,-10.72181 -10.72181,-10.72182 -10.72181,-29.00389 0,-18.90063 10.17198,-29.9661 10.24071,-11.13419 27.56056,-11.13419 15.53289,0 24.53646,10.03452 9.07231,9.96579 9.07231,27.14819 z m -12.64625,-3.7114 q -0.13745,-10.37817 -5.84201,-16.56383 -5.63583,-6.18566 -14.98305,-6.18566 -10.58436,0 -16.97621,5.97947 -6.32312,5.97947 -7.28533,16.83875 z"
           style="font-style:normal;font-variant:normal;font-weight:normal;font-stretch:normal;font-size:140.75819397px;font-family:sans-serif;-inkscape-font-specification:sans-serif;letter-spacing:0px;fill:#828282;fill-opacity:1;stroke-width:0.39419231"
           id="path174"
           inkscape:connector-curvature="0" />
        <path
           d="m 737.5845,845.51391 q -2.13062,-1.23714 -4.67361,-1.78697 -2.47427,-0.61857 -5.49837,-0.61857 -10.72181,0 -16.4951,7.01042 -5.70456,6.94169 -5.70456,20.00031 v 40.55046 h -12.71497 v -76.97714 h 12.71497 v 11.95895 q 3.98632,-7.01042 10.37817,-10.37817 6.39185,-3.43648 15.53289,-3.43648 1.30586,0 2.88664,0.20619 1.58078,0.13746 3.50521,0.48111 z"
           style="font-style:normal;font-variant:normal;font-weight:normal;font-stretch:normal;font-size:140.75819397px;font-family:sans-serif;-inkscape-font-specification:sans-serif;letter-spacing:0px;fill:#828282;fill-opacity:1;stroke-width:0.39419231"
           id="path176"
           inkscape:connector-curvature="0" />
        <path
           d="m 811.12518,833.69242 -27.83548,37.45762 29.2788,39.51952 h -14.91432 l -22.40585,-30.24102 -22.40584,30.24102 h -14.91432 l 29.89737,-40.27554 -27.35438,-36.7016 h 14.91432 l 20.41269,27.4231 20.41269,-27.4231 z"
           style="font-style:normal;font-variant:normal;font-weight:normal;font-stretch:normal;font-size:140.75819397px;font-family:sans-serif;-inkscape-font-specification:sans-serif;letter-spacing:0px;fill:#828282;fill-opacity:1;stroke-width:0.39419231"
           id="path178"
           inkscape:connector-curvature="0" />
      </g>
      <flowRoot
         xml:space="preserve"
         id="flowRoot4836"
         style="font-style:normal;font-weight:normal;font-size:40px;line-height:1.25;font-family:sans-serif;letter-spacing:0px;word-spacing:0px;fill:#000000;fill-opacity:1;stroke:none"
         transform="matrix(0.75000001,0,0,0.75000001,-834.00001,-7.5000001)"><flowRegion
           id="flowRegion4838"><rect
             id="rect4840"
             width="2674"
             height="830"
             x="878"
             y="530" /></flowRegion><flowPara
           id="flowPara4842" /></flowRoot>      <flowRoot
         xml:space="preserve"
         id="flowRoot137"
         style="font-style:normal;font-weight:normal;font-size:40px;line-height:1.25;font-family:sans-serif;letter-spacing:0px;word-spacing:0px;fill:#000000;fill-opacity:1;stroke:none"
         transform="translate(-94.904727,748.19455)"><flowRegion
           id="flowRegion139"><rect
             id="rect141"
             width="1231"
             height="391"
             x="-110"
             y="-52" /></flowRegion><flowPara
           id="flowPara143" /></flowRoot>    </g>
  </g>
</svg>
