<?xml version="1.0" encoding="UTF-8" standalone="no"?>
<svg
   xmlns:dc="http://purl.org/dc/elements/1.1/"
   xmlns:cc="http://creativecommons.org/ns#"
   xmlns:rdf="http://www.w3.org/1999/02/22-rdf-syntax-ns#"
   xmlns:svg="http://www.w3.org/2000/svg"
   xmlns="http://www.w3.org/2000/svg"
   xmlns:sodipodi="http://sodipodi.sourceforge.net/DTD/sodipodi-0.dtd"
   xmlns:inkscape="http://www.inkscape.org/namespaces/inkscape"
   version="1.0"
   width="319.99811pt"
   height="319.30133pt"
   viewBox="0 0 319.99811 319.30133"
   preserveAspectRatio="xMidYMid meet"
   id="svg261"
   sodipodi:docname="codemerx-logo.svg"
   inkscape:version="0.92.3 (2405546, 2018-03-11)">
  <defs
     id="defs265" />
  <sodipodi:namedview
     pagecolor="#ffffff"
     bordercolor="#666666"
     borderopacity="1"
     objecttolerance="10"
     gridtolerance="10"
     guidetolerance="10"
     inkscape:pageopacity="0"
     inkscape:pageshadow="2"
     inkscape:window-width="2505"
     inkscape:window-height="1385"
     id="namedview263"
     showgrid="false"
     inkscape:zoom="2"
     inkscape:cx="126.63787"
     inkscape:cy="245.59134"
     inkscape:window-x="55"
     inkscape:window-y="27"
     inkscape:window-maximized="1"
     inkscape:current-layer="layer1"
     fit-margin-top="0"
     fit-margin-left="0"
     fit-margin-right="0"
     fit-margin-bottom="0" />
  <metadata
     id="metadata255">
Created by potrace 1.15, written by Peter Selinger 2001-2017
<rdf:RDF>
  <cc:Work
     rdf:about="">
    <dc:format>image/svg+xml</dc:format>
    <dc:type
       rdf:resource="http://purl.org/dc/dcmitype/StillImage" />
    <dc:title></dc:title>
  </cc:Work>
</rdf:RDF>
</metadata>
  <g
     inkscape:groupmode="layer"
     id="layer1"
     inkscape:label="Fill"
     style="display:inline"
     transform="translate(-892.3425,-526.05695)">
    <g
       id="g4807"
       style="fill:#6692d3;fill-opacity:1;stroke:#6692d3;stroke-width:0.99975002;stroke-miterlimit:4;stroke-dasharray:none;stroke-opacity:1">
      <path
         transform="scale(0.75000001)"
         inkscape:connector-curvature="0"
         id="path4798"
         d="m 1327.0026,1097.9487 c -31.0979,-1.1708 -52.1281,-4.1307 -82.7026,-11.6399 -15.2538,-3.7464 -19.7052,-5.0398 -38.156,-11.0865 l -15.6609,-5.1325 0.5277,-9.7602 c 1.0221,-18.9054 2.2815,-32.4302 4.359,-46.811 8.0727,-55.87975 27.122,-110.15277 55.6558,-158.56831 15.2961,-25.95418 34.4588,-51.89505 54.5044,-73.78368 2.1727,-2.37245 4.0452,-4.21871 4.1611,-4.10281 0.1159,0.1159 -2.8617,4.93504 -6.6169,10.7092 -22.5021,34.60047 -36.854,63.74547 -48.9111,99.32601 -11.5679,34.13682 -19.3696,75.17242 -19.5065,102.6013 -0.049,9.86944 0.5005,12.94689 2.6728,14.96109 4.8891,4.5335 35.5072,17.6395 58.7976,25.1681 19.2103,6.2098 55.3084,13.7196 73.6604,15.3243 8.8188,0.7711 59.5486,0.7711 68.3674,0 18.5284,-1.6201 53.9687,-8.9165 72.7209,-14.9717 5.8122,-1.8767 5.7752,-1.8903 6.6109,2.4212 0.5629,2.9041 2.8297,24.3882 2.5976,24.6203 -0.3454,0.3454 -18.638,8.8328 -24.589,11.4088 -31.773,13.7536 -70.346,23.5704 -110.0495,28.0074 -15.0441,1.6812 -36.0552,2.1518 -58.4431,1.3089 z"
         style="fill:#6692d3;fill-opacity:1;stroke:#6692d3;stroke-width:1.33299994;stroke-miterlimit:4;stroke-dasharray:none;stroke-opacity:1" />
      <path
         transform="scale(0.75000001)"
         inkscape:connector-curvature="0"
         id="path4800"
         d="m 1272.2644,1002.6604 c -1.2129,-0.4416 -6.1751,-2.4916 -11.027,-4.55543 l -8.8216,-3.75241 -0.1355,-6.77015 c -0.6506,-32.50892 13.1882,-88.80966 32.3465,-131.59585 11.4215,-25.50761 28.6269,-54.4953 46.4676,-78.28881 11.5503,-15.40434 19.741,-24.61654 39.053,-43.92385 11.3953,-11.39249 31.5874,-30.14265 34.0772,-31.6436 0.7203,-0.43425 4.2807,1.71949 17.7866,10.75954 14.3571,9.60976 21.5767,14.85983 32.4194,23.5751 48.4442,38.93918 88.1581,87.93673 115.9542,143.0602 8.992,17.83252 14.1541,30.02721 22.8978,54.09314 4.6936,12.91841 6.2097,17.4013 5.9671,17.64389 -0.092,0.0915 -3.1298,-5.42911 -6.7517,-12.26815 -17.9133,-33.82524 -29.6163,-52.20051 -47.6693,-74.84748 -17.6842,-22.18422 -40.5247,-45.11506 -63.1333,-63.38296 -13.4694,-10.88335 -26.2537,-19.80509 -34.1015,-23.79839 -7.2273,-3.67746 -9.5419,-3.15393 -21.5763,4.8801 -22.6007,15.08794 -54.1729,44.0738 -73.817,67.77004 -24.8151,29.93392 -44.5049,63.74608 -57.9064,99.43916 -5.2598,14.0088 -11.7764,34.84109 -14.8325,47.41613 -0.737,3.03243 -1.5235,5.86088 -1.7479,6.28538 -0.5262,0.9957 -2.5498,0.9602 -5.4494,-0.096 z"
         style="fill:#6692d3;fill-opacity:1;stroke:#6692d3;stroke-width:1.33299994;stroke-miterlimit:4;stroke-dasharray:none;stroke-opacity:1" />
      <path
         transform="scale(0.75000001)"
         inkscape:connector-curvature="0"
         id="path4802"
         d="m 1392.4588,1126.2883 c -22.6181,-0.5616 -54.6086,-4.2702 -77.5467,-8.9899 -7.9676,-1.6394 -6.632,-1.7739 14.6928,-1.4799 26.8619,0.3704 43.6626,-0.4392 65.5004,-3.1563 34.3774,-4.2772 67.1624,-12.4393 97.1567,-24.1879 10.1133,-3.9613 18.0436,-7.5387 29.1016,-13.1278 14.9913,-7.5773 16.1564,-9.118 15.6191,-20.6533 -0.3298,-7.0818 -1.9833,-21.9895 -3.5957,-32.4194 -5.756,-37.23295 -16.4474,-70.6045 -33.632,-104.97709 -14.7794,-29.56156 -35.5711,-59.66166 -58.1932,-84.24632 -2.902,-3.15373 -9.4618,-9.77894 -14.5773,-14.72269 l -9.3009,-8.98864 11.2526,-8.32376 c 6.189,-4.57807 11.3843,-8.32376 11.5452,-8.32376 0.5792,0 10.0817,6.0674 14.8314,9.46993 57.3836,41.1081 102.5171,98.25054 132.1564,167.32031 6.054,14.10789 13.342,34.49632 17.5764,49.17072 3.7129,12.8673 9.9707,41.7175 10.4538,48.1954 l 0.265,3.5536 -1.9106,1.6355 c -2.1099,1.8059 -16.6533,9.2918 -28.6429,14.7432 -43.1414,19.6156 -88.4129,32.1522 -134.0884,37.1318 -11.24,1.2254 -18.1954,1.7202 -31.3167,2.2278 -10.4989,0.4061 -15.8076,0.435 -27.347,0.1485 z"
         style="fill:#6692d3;fill-opacity:1;stroke:#6692d3;stroke-width:1.33299994;stroke-miterlimit:4;stroke-dasharray:none;stroke-opacity:1" />
    </g>
  </g>
</svg>
